<svg width="14" height="13" viewBox="0 0 14 13" fill="none" xmlns="http://www.w3.org/2000/svg">
<path d="M3.52083 7.33333L7.60417 11.4167C7.77083 11.5833 7.85069 11.7778 7.84375 12C7.83681 12.2222 7.75 12.4167 7.58333 12.5833C7.41667 12.7361 7.22222 12.816 7 12.8229C6.77778 12.8299 6.58333 12.75 6.41667 12.5833L0.916667 7.08333C0.833333 7 0.774306 6.90972 0.739583 6.8125C0.704861 6.71528 0.6875 6.61111 0.6875 6.5C0.6875 6.38889 0.704861 6.28472 0.739583 6.1875C0.774306 6.09028 0.833333 6 0.916667 5.91667L6.41667 0.416667C6.56944 0.263889 6.76042 0.1875 6.98958 0.1875C7.21875 0.1875 7.41667 0.263889 7.58333 0.416667C7.75 0.583333 7.83333 0.78125 7.83333 1.01042C7.83333 1.23958 7.75 1.4375 7.58333 1.60417L3.52083 5.66667H12.8333C13.0694 5.66667 13.2674 5.74653 13.4271 5.90625C13.5868 6.06597 13.6667 6.26389 13.6667 6.5C13.6667 6.73611 13.5868 6.93403 13.4271 7.09375C13.2674 7.25347 13.0694 7.33333 12.8333 7.33333H3.52083Z" fill="#5E5E65"/>
</svg>
