<svg width="6" height="10" viewBox="0 0 6 10" fill="none" xmlns="http://www.w3.org/2000/svg">
<path d="M5.97933 5.00065C5.97933 5.11176 5.96197 5.21593 5.92725 5.31315C5.89252 5.41037 5.8335 5.50065 5.75016 5.58398L1.91683 9.41732C1.76405 9.5701 1.56961 9.64648 1.3335 9.64648C1.09738 9.64648 0.902941 9.5701 0.750163 9.41732C0.597385 9.26454 0.520996 9.0701 0.520996 8.83398C0.520996 8.59787 0.597385 8.40343 0.750163 8.25065L4.00016 5.00065L0.750163 1.75065C0.597385 1.59787 0.520996 1.40343 0.520996 1.16732C0.520996 0.931208 0.597385 0.736763 0.750163 0.583985C0.902941 0.431208 1.09739 0.354818 1.3335 0.354818C1.56961 0.354818 1.76405 0.431208 1.91683 0.583985L5.75016 4.41732C5.8335 4.50065 5.89252 4.59093 5.92725 4.68815C5.96197 4.78537 5.97933 4.88954 5.97933 5.00065Z" fill="#5E5E65"/>
</svg>
