<svg width="7" height="12" viewBox="0 0 7 12" fill="none" xmlns="http://www.w3.org/2000/svg">
<path d="M0.0251951 6.00117C0.0251951 6.13451 0.0460286 6.25951 0.0876951 6.37617C0.129362 6.49284 0.200195 6.60117 0.300195 6.70117L4.9002 11.3012C5.08353 11.4845 5.31686 11.5762 5.6002 11.5762C5.88353 11.5762 6.11686 11.4845 6.3002 11.3012C6.48353 11.1178 6.5752 10.8845 6.5752 10.6012C6.5752 10.3178 6.48353 10.0845 6.3002 9.90117L2.4002 6.00117L6.3002 2.10117C6.48353 1.91784 6.5752 1.68451 6.5752 1.40117C6.5752 1.11784 6.48353 0.884506 6.3002 0.701173C6.11686 0.517839 5.88353 0.426172 5.6002 0.426172C5.31686 0.426172 5.08353 0.517839 4.9002 0.701173L0.300195 5.30117C0.200195 5.40117 0.129362 5.50951 0.0876951 5.62617C0.0460285 5.74284 0.0251951 5.86784 0.0251951 6.00117Z" fill="#5E5E65"/>
</svg>
