<svg width="16" height="16" viewBox="0 0 16 16" fill="none" xmlns="http://www.w3.org/2000/svg">
<path d="M3.8335 9.50678C4.02419 9.50678 4.18405 9.44227 4.31308 9.31324C4.44211 9.18421 4.50662 9.02435 4.50662 8.83366C4.50662 8.64296 4.44211 8.4831 4.31308 8.35408C4.18405 8.22505 4.02419 8.16053 3.8335 8.16053C3.6428 8.16053 3.48294 8.22505 3.35391 8.35408C3.22488 8.4831 3.16037 8.64296 3.16037 8.83366C3.16037 9.02435 3.22488 9.18421 3.35391 9.31324C3.48294 9.44227 3.6428 9.50678 3.8335 9.50678ZM3.8335 6.17345C4.02419 6.17345 4.18405 6.10894 4.31308 5.97991C4.44211 5.85088 4.50662 5.69102 4.50662 5.50033C4.50662 5.30963 4.44211 5.14977 4.31308 5.02074C4.18405 4.89171 4.02419 4.8272 3.8335 4.8272C3.6428 4.8272 3.48294 4.89171 3.35391 5.02074C3.22488 5.14977 3.16037 5.30963 3.16037 5.50033C3.16037 5.69102 3.22488 5.85088 3.35391 5.97991C3.48294 6.10894 3.6428 6.17345 3.8335 6.17345ZM6.17329 9.45866H12.1668C12.3439 9.45866 12.4923 9.39873 12.612 9.27887C12.7319 9.15901 12.7918 9.01053 12.7918 8.83345C12.7918 8.65623 12.7319 8.50783 12.612 8.38824C12.4923 8.26852 12.3439 8.20866 12.1668 8.20866H6.17329C5.9962 8.20866 5.84773 8.26859 5.72787 8.38845C5.60815 8.50831 5.54829 8.65679 5.54829 8.83387C5.54829 9.01109 5.60815 9.15949 5.72787 9.27908C5.84773 9.3988 5.9962 9.45866 6.17329 9.45866ZM6.17329 6.12533H12.1668C12.3439 6.12533 12.4923 6.06539 12.612 5.94553C12.7319 5.82567 12.7918 5.6772 12.7918 5.50012C12.7918 5.3229 12.7319 5.17449 12.612 5.05491C12.4923 4.93519 12.3439 4.87533 12.1668 4.87533H6.17329C5.9962 4.87533 5.84773 4.93526 5.72787 5.05512C5.60815 5.17498 5.54829 5.32345 5.54829 5.50053C5.54829 5.67776 5.60815 5.82616 5.72787 5.94574C5.84773 6.06546 5.9962 6.12533 6.17329 6.12533ZM1.58995 13.417C1.16898 13.417 0.812663 13.2712 0.520996 12.9795C0.229329 12.6878 0.0834961 12.3315 0.0834961 11.9105V2.42345C0.0834961 2.00248 0.229329 1.64616 0.520996 1.35449C0.812663 1.06283 1.16898 0.916992 1.58995 0.916992H14.4104C14.8313 0.916992 15.1877 1.06283 15.4793 1.35449C15.771 1.64616 15.9168 2.00248 15.9168 2.42345V11.9105C15.9168 12.3315 15.771 12.6878 15.4793 12.9795C15.1877 13.2712 14.8313 13.417 14.4104 13.417H10.9168V14.3303C10.9168 14.5438 10.8446 14.7227 10.7002 14.867C10.5559 15.0114 10.377 15.0837 10.1635 15.0837H5.83683C5.62336 15.0837 5.44447 15.0114 5.30016 14.867C5.15572 14.7227 5.0835 14.5438 5.0835 14.3303V13.417H1.58995ZM1.58995 12.167H14.4104C14.4745 12.167 14.5333 12.1403 14.5866 12.0868C14.6401 12.0335 14.6668 11.9747 14.6668 11.9105V2.42345C14.6668 2.35928 14.6401 2.30053 14.5866 2.2472C14.5333 2.19373 14.4745 2.16699 14.4104 2.16699H1.58995C1.52579 2.16699 1.46704 2.19373 1.4137 2.2472C1.36023 2.30053 1.3335 2.35928 1.3335 2.42345V11.9105C1.3335 11.9747 1.36023 12.0335 1.4137 12.0868C1.46704 12.1403 1.52579 12.167 1.58995 12.167Z" fill="#5E5E65"/>
</svg>
