<svg width="20" height="20" viewBox="0 0 20 20" fill="none" xmlns="http://www.w3.org/2000/svg">
<mask id="mask0_166_9265" style="mask-type:alpha" maskUnits="userSpaceOnUse" x="0" y="0" width="20" height="20">
<rect width="20" height="20" fill="#D9D9D9"/>
</mask>
<g mask="url(#mask0_166_9265)">
<path d="M4.375 15.7368C4.19792 15.7368 4.04951 15.6769 3.92979 15.5572C3.80993 15.4373 3.75 15.2888 3.75 15.1115C3.75 14.9345 3.80993 14.7861 3.92979 14.6663C4.04951 14.5468 4.19792 14.487 4.375 14.487H5.25646V8.26884C5.25646 7.14815 5.60236 6.15724 6.29417 5.29613C6.98583 4.43502 7.87389 3.88426 8.95833 3.64384V3.12467C8.95833 2.83537 9.05951 2.5894 9.26188 2.38676C9.46424 2.18426 9.70993 2.08301 9.99896 2.08301C10.2881 2.08301 10.5342 2.18426 10.7371 2.38676C10.9401 2.5894 11.0417 2.83537 11.0417 3.12467V3.64384C12.1261 3.88426 13.0142 4.43502 13.7058 5.29613C14.3976 6.15724 14.7435 7.14815 14.7435 8.26884V14.487H15.625C15.8021 14.487 15.9505 14.5468 16.0702 14.6665C16.1901 14.7864 16.25 14.935 16.25 15.1122C16.25 15.2893 16.1901 15.4377 16.0702 15.5574C15.9505 15.677 15.8021 15.7368 15.625 15.7368H4.375ZM9.99854 18.0765C9.58396 18.0765 9.22951 17.929 8.93521 17.634C8.64076 17.339 8.49354 16.9844 8.49354 16.5701H11.5065C11.5065 16.9858 11.3588 17.3408 11.0635 17.6351C10.7683 17.9294 10.4133 18.0765 9.99854 18.0765Z" fill="#383838"/>
</g>
</svg>
