<svg width="15" height="16" viewBox="0 0 15 16" fill="none" xmlns="http://www.w3.org/2000/svg">
<path d="M6.87484 14.3074V8.35867L1.6665 5.34263V11.1472C1.6665 11.1899 1.6772 11.2299 1.69859 11.2674C1.71998 11.3048 1.75199 11.3368 1.79463 11.3635L6.87484 14.3074ZM8.12484 14.3074L13.205 11.3635C13.2477 11.3368 13.2797 11.3048 13.3011 11.2674C13.3225 11.2299 13.3332 11.1899 13.3332 11.1472V5.34263L8.12484 8.35867V14.3074ZM7.49984 7.2818L12.6457 4.30742L7.62796 1.40513C7.58532 1.37846 7.54262 1.36513 7.49984 1.36513C7.45706 1.36513 7.41435 1.37846 7.37171 1.40513L2.354 4.30742L7.49984 7.2818ZM1.16984 12.4612C0.932615 12.3245 0.747754 12.1419 0.615254 11.9133C0.482754 11.6845 0.416504 11.4334 0.416504 11.1599V4.83951C0.416504 4.56603 0.482754 4.31492 0.615254 4.08617C0.747754 3.85756 0.932615 3.67492 1.16984 3.53825L6.74671 0.328256C6.9838 0.19145 7.23484 0.123047 7.49984 0.123047C7.76484 0.123047 8.01588 0.19145 8.25296 0.328256L13.8298 3.53825C14.0671 3.67492 14.2519 3.85756 14.3844 4.08617C14.5169 4.31492 14.5832 4.56603 14.5832 4.83951V11.1599C14.5832 11.4334 14.5169 11.6845 14.3844 11.9133C14.2519 12.1419 14.0671 12.3245 13.8298 12.4612L8.25296 15.6712C8.01588 15.808 7.76484 15.8764 7.49984 15.8764C7.23484 15.8764 6.9838 15.808 6.74671 15.6712L1.16984 12.4612Z" fill="#5E5E65"/>
</svg>
