<svg width="17" height="18" viewBox="0 0 17 18" fill="none" xmlns="http://www.w3.org/2000/svg">
<path d="M2.1665 6.3398H13.8332V4.25647C13.8332 4.1923 13.8064 4.13355 13.753 4.08022C13.6996 4.02675 13.6409 4.00001 13.5767 4.00001H2.42296C2.3588 4.00001 2.30005 4.02675 2.24671 4.08022C2.19324 4.13355 2.1665 4.1923 2.1665 4.25647V6.3398ZM2.42296 16.9167C2.00199 16.9167 1.64567 16.7708 1.354 16.4792C1.06234 16.1875 0.916504 15.8312 0.916504 15.4102V4.25647C0.916504 3.8355 1.06234 3.47918 1.354 3.18751C1.64567 2.89585 2.00199 2.75001 2.42296 2.75001H3.57671V1.62814C3.57671 1.4455 3.63789 1.293 3.76025 1.17064C3.88262 1.04842 4.03512 0.987305 4.21775 0.987305C4.40053 0.987305 4.55303 1.04842 4.67525 1.17064C4.79762 1.293 4.8588 1.4455 4.8588 1.62814V2.75001H11.173V1.6123C11.173 1.43494 11.2328 1.2864 11.3523 1.16668C11.4721 1.0471 11.6206 0.987305 11.798 0.987305C11.9753 0.987305 12.1238 1.0471 12.2434 1.16668C12.3631 1.2864 12.423 1.43494 12.423 1.6123V2.75001H13.5767C13.9977 2.75001 14.354 2.89585 14.6457 3.18751C14.9373 3.47918 15.0832 3.8355 15.0832 4.25647V8.18439C15.0832 8.36175 15.0233 8.51022 14.9036 8.62981C14.784 8.74953 14.6355 8.80939 14.4582 8.80939C14.2808 8.80939 14.1323 8.74953 14.0128 8.62981C13.893 8.51022 13.8332 8.36175 13.8332 8.18439V7.5898H2.1665V15.4102C2.1665 15.4744 2.19324 15.5331 2.24671 15.5865C2.30005 15.6399 2.3588 15.6667 2.42296 15.6667H7.52067C7.69803 15.6667 7.84657 15.7265 7.9663 15.8463C8.08588 15.9658 8.14567 16.1143 8.14567 16.2917C8.14567 16.469 8.08588 16.6175 7.9663 16.7371C7.84657 16.8568 7.69803 16.9167 7.52067 16.9167H2.42296ZM13.16 17.75C12.1195 17.75 11.2344 17.3852 10.5046 16.6554C9.77491 15.9257 9.41005 15.0406 9.41005 14C9.41005 12.9595 9.77491 12.0743 10.5046 11.3446C11.2344 10.6149 12.1195 10.25 13.16 10.25C14.2007 10.25 15.0859 10.6149 15.8155 11.3446C16.5452 12.0743 16.91 12.9595 16.91 14C16.91 15.0406 16.5452 15.9257 15.8155 16.6554C15.0859 17.3852 14.2007 17.75 13.16 17.75ZM13.5288 13.8494V11.9167C13.5288 11.8163 13.4924 11.7297 13.4196 11.6571C13.347 11.5845 13.2605 11.5481 13.16 11.5481C13.0596 11.5481 12.9731 11.5845 12.9005 11.6571C12.8278 11.7297 12.7915 11.8163 12.7915 11.9167V13.8365C12.7915 13.9369 12.8097 14.0325 12.8461 14.1233C12.8823 14.2142 12.9395 14.2986 13.0175 14.3767L14.2884 15.6475C14.361 15.7202 14.4462 15.7578 14.544 15.7604C14.6416 15.7631 14.7295 15.7254 14.8075 15.6475C14.8856 15.5695 14.9246 15.4829 14.9246 15.3879C14.9246 15.2928 14.8856 15.2062 14.8075 15.1281L13.5288 13.8494Z" fill="#5E5E65"/>
</svg>
