<svg width="14" height="8" viewBox="0 0 14 8" fill="none" xmlns="http://www.w3.org/2000/svg">
<path d="M0.281947 4.58449C0.182836 4.48527 0.133947 4.36922 0.13528 4.23633C0.136503 4.10344 0.188836 3.98527 0.29228 3.88183C0.395725 3.78527 0.512836 3.73527 0.643614 3.73183C0.77428 3.72849 0.891336 3.77849 0.99478 3.88183L3.47695 6.36399L3.64361 6.19733C3.7085 6.22811 3.77667 6.26633 3.84811 6.31199C3.91945 6.35777 3.98972 6.41527 4.05895 6.48449C4.16239 6.58783 4.21239 6.70488 4.20895 6.83566C4.2055 6.96644 4.15206 7.08355 4.04861 7.18699L3.88845 7.34733C3.76789 7.46099 3.62728 7.51949 3.46661 7.52283C3.30595 7.52627 3.16534 7.46777 3.04478 7.34733L0.281947 4.58449ZM7.23328 6.35366L13.0153 0.57166C13.1145 0.472549 13.2306 0.423605 13.3634 0.424827C13.4963 0.42616 13.6145 0.478493 13.7179 0.581827C13.8145 0.685271 13.8645 0.802383 13.8679 0.93316C13.8713 1.06394 13.8213 1.18105 13.7179 1.28449L7.65511 7.34733C7.53456 7.46777 7.39395 7.52799 7.23328 7.52799C7.07261 7.52799 6.932 7.46777 6.81145 7.34733L4.04861 4.58449C3.95639 4.49216 3.90917 4.37783 3.90695 4.24149C3.90484 4.10516 3.95206 3.98527 4.04861 3.88183C4.15206 3.77849 4.27089 3.72683 4.40511 3.72683C4.53922 3.72683 4.658 3.77849 4.76145 3.88183L7.23328 6.35366ZM9.94095 1.29466L7.35378 3.88183C7.26145 3.97416 7.14711 4.02138 7.01078 4.02349C6.87445 4.02572 6.75461 3.97849 6.65128 3.88183C6.54784 3.77849 6.49611 3.65972 6.49611 3.52549C6.49611 3.39127 6.54784 3.27249 6.65128 3.16916L9.23845 0.581827C9.33078 0.489605 9.44506 0.442382 9.58128 0.44016C9.71761 0.438049 9.8375 0.485271 9.94095 0.581827C10.0444 0.685271 10.0961 0.804105 10.0961 0.938327C10.0961 1.07244 10.0444 1.19122 9.94095 1.29466Z" fill="#5E5E65"/>
</svg>
