<svg width="18" height="18" viewBox="0 0 18 18" fill="none" xmlns="http://www.w3.org/2000/svg">
<mask id="mask0_367_55" style="mask-type:alpha" maskUnits="userSpaceOnUse" x="0" y="0" width="18" height="18">
<rect x="0.666504" y="0.666992" width="16.6667" height="16.6667" fill="#D9D9D9"/>
</mask>
<g mask="url(#mask0_367_55)">
<path d="M5.52783 10.2558C5.68674 10.2558 5.81996 10.2021 5.92748 10.0945C6.03501 9.98701 6.08877 9.85379 6.08877 9.69488C6.08877 9.53597 6.03501 9.40275 5.92748 9.29523C5.81996 9.1877 5.68674 9.13394 5.52783 9.13394C5.36892 9.13394 5.2357 9.1877 5.12818 9.29523C5.02066 9.40275 4.96689 9.53597 4.96689 9.69488C4.96689 9.85379 5.02066 9.98701 5.12818 10.0945C5.2357 10.2021 5.36892 10.2558 5.52783 10.2558ZM5.52783 7.47804C5.68674 7.47804 5.81996 7.42428 5.92748 7.31675C6.03501 7.20923 6.08877 7.07601 6.08877 6.9171C6.08877 6.75819 6.03501 6.62497 5.92748 6.51745C5.81996 6.40992 5.68674 6.35616 5.52783 6.35616C5.36892 6.35616 5.2357 6.40992 5.12818 6.51745C5.02066 6.62497 4.96689 6.75819 4.96689 6.9171C4.96689 7.07601 5.02066 7.20923 5.12818 7.31675C5.2357 7.42428 5.36892 7.47804 5.52783 7.47804ZM7.47766 10.2157H12.4723C12.6198 10.2157 12.7435 10.1658 12.8433 10.0659C12.9432 9.966 12.9931 9.84227 12.9931 9.6947C12.9931 9.54702 12.9432 9.42335 12.8433 9.3237C12.7435 9.22393 12.6198 9.17405 12.4723 9.17405H7.47766C7.33009 9.17405 7.20636 9.22399 7.10648 9.32387C7.00671 9.42376 6.95683 9.54748 6.95683 9.69505C6.95683 9.84274 7.00671 9.96641 7.10648 10.0661C7.20636 10.1658 7.33009 10.2157 7.47766 10.2157ZM7.47766 7.43793H12.4723C12.6198 7.43793 12.7435 7.38799 12.8433 7.28811C12.9432 7.18822 12.9931 7.0645 12.9931 6.91693C12.9931 6.76924 12.9432 6.64557 12.8433 6.54592C12.7435 6.44615 12.6198 6.39627 12.4723 6.39627H7.47766C7.33009 6.39627 7.20636 6.44621 7.10648 6.54609C7.00671 6.64598 6.95683 6.76971 6.95683 6.91727C6.95683 7.06496 7.00671 7.18863 7.10648 7.28828C7.20636 7.38805 7.33009 7.43793 7.47766 7.43793ZM3.65821 13.5143C3.3074 13.5143 3.01047 13.3928 2.76742 13.1497C2.52436 12.9067 2.40283 12.6098 2.40283 12.2589V4.35304C2.40283 4.00223 2.52436 3.7053 2.76742 3.46224C3.01047 3.21918 3.3074 3.09766 3.65821 3.09766H14.3419C14.6927 3.09766 14.9896 3.21918 15.2327 3.46224C15.4757 3.7053 15.5973 4.00223 15.5973 4.35304V12.2589C15.5973 12.6098 15.4757 12.9067 15.2327 13.1497C14.9896 13.3928 14.6927 13.5143 14.3419 13.5143H11.4306V14.2754C11.4306 14.4533 11.3704 14.6024 11.2501 14.7227C11.1298 14.843 10.9807 14.9032 10.8028 14.9032H7.19728C7.01938 14.9032 6.87031 14.843 6.75005 14.7227C6.62968 14.6024 6.5695 14.4533 6.5695 14.2754V13.5143H3.65821ZM3.65821 12.4727H14.3419C14.3954 12.4727 14.4443 12.4504 14.4888 12.4058C14.5333 12.3614 14.5556 12.3124 14.5556 12.2589V4.35304C14.5556 4.29957 14.5333 4.25061 14.4888 4.20616C14.4443 4.1616 14.3954 4.13932 14.3419 4.13932H3.65821C3.60474 4.13932 3.55578 4.1616 3.51134 4.20616C3.46678 4.25061 3.4445 4.29957 3.4445 4.35304V12.2589C3.4445 12.3124 3.46678 12.3614 3.51134 12.4058C3.55578 12.4504 3.60474 12.4727 3.65821 12.4727Z" fill="#007AFF"/>
</g>
</svg>
