<svg width="14" height="15" viewBox="0 0 14 15" fill="none" xmlns="http://www.w3.org/2000/svg">
<path d="M12.667 13.6663H10.667C10.4781 13.6663 10.3198 13.6025 10.192 13.4747C10.0642 13.3469 10.0003 13.1886 10.0003 12.9997C10.0003 12.8108 10.0642 12.6525 10.192 12.5247C10.3198 12.3969 10.4781 12.333 10.667 12.333H12.667V5.66634H3.33366V7.66634C3.33366 7.85523 3.26977 8.01356 3.14199 8.14134C3.01421 8.26912 2.85588 8.33301 2.66699 8.33301C2.4781 8.33301 2.31977 8.26912 2.19199 8.14134C2.06421 8.01356 2.00033 7.85523 2.00033 7.66634V2.99967C2.00033 2.63301 2.13088 2.31912 2.39199 2.05801C2.6531 1.7969 2.96699 1.66634 3.33366 1.66634H4.00033V0.999674C4.00033 0.810786 4.06421 0.652452 4.19199 0.524674C4.31977 0.396897 4.4781 0.333008 4.66699 0.333008C4.85588 0.333008 5.01421 0.396897 5.14199 0.524674C5.26977 0.652452 5.33366 0.810786 5.33366 0.999674V1.66634H10.667V0.999674C10.667 0.810786 10.7309 0.652452 10.8587 0.524674C10.9864 0.396897 11.1448 0.333008 11.3337 0.333008C11.5225 0.333008 11.6809 0.396897 11.8087 0.524674C11.9364 0.652452 12.0003 0.810786 12.0003 0.999674V1.66634H12.667C13.0337 1.66634 13.3475 1.7969 13.6087 2.05801C13.8698 2.31912 14.0003 2.63301 14.0003 2.99967V12.333C14.0003 12.6997 13.8698 13.0136 13.6087 13.2747C13.3475 13.5358 13.0337 13.6663 12.667 13.6663ZM6.11699 12.333H1.33366C1.14477 12.333 0.986437 12.2691 0.858659 12.1413C0.730881 12.0136 0.666992 11.8552 0.666992 11.6663C0.666992 11.4775 0.730881 11.3191 0.858659 11.1913C0.986437 11.0636 1.14477 10.9997 1.33366 10.9997H6.11699L4.86699 9.73301C4.74477 9.61079 4.68088 9.45801 4.67533 9.27468C4.66977 9.09134 4.73366 8.93301 4.86699 8.79967C4.98921 8.67745 5.14477 8.61634 5.33366 8.61634C5.52255 8.61634 5.6781 8.67745 5.80033 8.79967L8.20033 11.1997C8.33366 11.333 8.40033 11.4886 8.40033 11.6663C8.40033 11.8441 8.33366 11.9997 8.20033 12.133L5.80033 14.533C5.6781 14.6552 5.52533 14.7191 5.34199 14.7247C5.15866 14.7302 5.00033 14.6663 4.86699 14.533C4.74477 14.4108 4.68366 14.2552 4.68366 14.0663C4.68366 13.8775 4.74477 13.7219 4.86699 13.5997L6.11699 12.333ZM3.33366 4.33301H12.667V2.99967H3.33366V4.33301Z" fill="#5E5E65"/>
</svg>
