<svg width="13" height="15" viewBox="0 0 13 15" fill="none" xmlns="http://www.w3.org/2000/svg">
<path d="M10.0003 12.9997L12.667 10.333L11.7337 9.39968L10.667 10.4663V7.68301H9.33366V10.4663L8.26699 9.39968L7.33366 10.333L10.0003 12.9997ZM7.33366 14.9997V13.6663H12.667V14.9997H7.33366ZM2.00033 12.333C1.63366 12.333 1.31977 12.2025 1.05866 11.9413C0.797548 11.6802 0.666992 11.3663 0.666992 10.9997V1.66634C0.666992 1.29967 0.797548 0.985786 1.05866 0.724675C1.31977 0.463563 1.63366 0.333008 2.00033 0.333008H6.66699L10.667 4.33301V6.34968H9.33366V4.99967H6.00033V1.66634H2.00033V10.9997H6.00033V12.333H2.00033Z" fill="#5E5E65"/>
</svg>
