<svg width="20" height="20" viewBox="0 0 20 20" fill="none" xmlns="http://www.w3.org/2000/svg">
<mask id="mask0_367_152" style="mask-type:alpha" maskUnits="userSpaceOnUse" x="0" y="0" width="20" height="20">
<rect width="20" height="20" fill="#D9D9D9"/>
</mask>
<g mask="url(#mask0_367_152)">
<path d="M1.49854 14.237C1.49854 13.8076 1.60937 13.4243 1.83104 13.0872C2.0527 12.7502 2.34874 12.4879 2.71916 12.3006C3.5111 11.9132 4.30742 11.6145 5.10812 11.4045C5.90895 11.1947 6.78902 11.0897 7.74833 11.0897C8.70777 11.0897 9.58784 11.1947 10.3885 11.4045C11.1894 11.6145 11.9858 11.9132 12.7777 12.3006C13.1481 12.4879 13.4442 12.7502 13.6658 13.0872C13.8875 13.4243 13.9983 13.8076 13.9983 14.237V14.8237C13.9983 15.1591 13.8752 15.454 13.629 15.7083C13.3827 15.9626 13.0838 16.0897 12.7323 16.0897H2.76437C2.41298 16.0897 2.11416 15.9666 1.86791 15.7204C1.62166 15.474 1.49854 15.1751 1.49854 14.8237V14.237ZM17.2356 16.0897H15.3429C15.4476 15.8985 15.5275 15.6949 15.5825 15.4791C15.6375 15.2633 15.665 15.0448 15.665 14.8237V14.1345C15.665 13.5876 15.5311 13.0663 15.2633 12.5706C14.9954 12.075 14.6154 11.6498 14.1233 11.2949C14.6821 11.3783 15.2126 11.5072 15.7148 11.6818C16.2169 11.8565 16.696 12.063 17.1523 12.3012C17.5828 12.5309 17.9153 12.8017 18.1498 13.1135C18.3842 13.4252 18.5015 13.7655 18.5015 14.1345V14.8237C18.5015 15.1751 18.3783 15.474 18.1321 15.7204C17.8858 15.9666 17.587 16.0897 17.2356 16.0897ZM7.74833 9.74349C6.94624 9.74349 6.25965 9.45793 5.68854 8.88682C5.11742 8.31557 4.83187 7.62891 4.83187 6.82682C4.83187 6.02474 5.11742 5.33814 5.68854 4.76703C6.25965 4.19578 6.94624 3.91016 7.74833 3.91016C8.55041 3.91016 9.23708 4.19578 9.80833 4.76703C10.3794 5.33814 10.665 6.02474 10.665 6.82682C10.665 7.62891 10.3794 8.31557 9.80833 8.88682C9.23708 9.45793 8.55041 9.74349 7.74833 9.74349ZM14.9437 6.82682C14.9437 7.62891 14.6582 8.31557 14.0871 8.88682C13.516 9.45793 12.8294 9.74349 12.0273 9.74349C11.9333 9.74349 11.8136 9.73279 11.6683 9.71141C11.5229 9.69002 11.4033 9.66654 11.3094 9.64099C11.638 9.24585 11.8906 8.80752 12.0671 8.32599C12.2435 7.84446 12.3317 7.34446 12.3317 6.82599C12.3317 6.30738 12.2417 5.80925 12.0617 5.33161C11.8817 4.85411 11.6309 4.41453 11.3094 4.01286C11.429 3.97009 11.5486 3.94231 11.6683 3.92953C11.7879 3.91661 11.9076 3.91016 12.0273 3.91016C12.8294 3.91016 13.516 4.19578 14.0871 4.76703C14.6582 5.33814 14.9437 6.02474 14.9437 6.82682ZM2.74833 14.8397H12.7483V14.237C12.7483 14.063 12.7048 13.9081 12.6177 13.7724C12.5308 13.6368 12.3927 13.5181 12.2035 13.4166C11.5177 13.063 10.8115 12.7951 10.085 12.6129C9.35847 12.4308 8.57958 12.3397 7.74833 12.3397C6.91722 12.3397 6.1384 12.4308 5.41187 12.6129C4.68534 12.7951 3.97916 13.063 3.29333 13.4166C3.10416 13.5181 2.96604 13.6368 2.87895 13.7724C2.79187 13.9081 2.74833 14.063 2.74833 14.237V14.8397ZM7.74833 8.49349C8.20666 8.49349 8.59902 8.3303 8.92541 8.00391C9.2518 7.67752 9.41499 7.28516 9.41499 6.82682C9.41499 6.36849 9.2518 5.97613 8.92541 5.64974C8.59902 5.32335 8.20666 5.16016 7.74833 5.16016C7.28999 5.16016 6.89763 5.32335 6.57124 5.64974C6.24486 5.97613 6.08166 6.36849 6.08166 6.82682C6.08166 7.28516 6.24486 7.67752 6.57124 8.00391C6.89763 8.3303 7.28999 8.49349 7.74833 8.49349Z" fill="#8A4CF4"/>
</g>
</svg>
