<svg width="17" height="14" viewBox="0 0 17 14" fill="none" xmlns="http://www.w3.org/2000/svg">
<path d="M-0.00146484 11.237C-0.00146484 10.8076 0.109368 10.4243 0.331035 10.0872C0.552702 9.75016 0.848744 9.48793 1.21916 9.30057C2.0111 8.91321 2.80742 8.61453 3.60812 8.40453C4.40895 8.19467 5.28902 8.08974 6.24833 8.08974C7.20777 8.08974 8.08784 8.19467 8.88854 8.40453C9.68937 8.61453 10.4858 8.91321 11.2777 9.30057C11.6481 9.48793 11.9442 9.75016 12.1658 10.0872C12.3875 10.4243 12.4983 10.8076 12.4983 11.237V11.8237C12.4983 12.1591 12.3752 12.454 12.129 12.7083C11.8827 12.9626 11.5838 13.0897 11.2323 13.0897H1.26437C0.91298 13.0897 0.61416 12.9666 0.36791 12.7204C0.12166 12.474 -0.00146484 12.1751 -0.00146484 11.8237V11.237ZM15.7356 13.0897H13.8429C13.9476 12.8985 14.0275 12.6949 14.0825 12.4791C14.1375 12.2633 14.165 12.0448 14.165 11.8237V11.1345C14.165 10.5876 14.0311 10.0663 13.7633 9.57057C13.4954 9.07502 13.1154 8.64981 12.6233 8.29495C13.1821 8.37828 13.7126 8.50724 14.2148 8.68182C14.7169 8.85654 15.196 9.063 15.6523 9.3012C16.0828 9.53092 16.4153 9.80168 16.6498 10.1135C16.8842 10.4252 17.0015 10.7655 17.0015 11.1345V11.8237C17.0015 12.1751 16.8783 12.474 16.6321 12.7204C16.3858 12.9666 16.087 13.0897 15.7356 13.0897ZM6.24833 6.74349C5.44624 6.74349 4.75965 6.45793 4.18854 5.88682C3.61742 5.31557 3.33187 4.62891 3.33187 3.82682C3.33187 3.02474 3.61742 2.33814 4.18854 1.76703C4.75965 1.19578 5.44624 0.910156 6.24833 0.910156C7.05041 0.910156 7.73708 1.19578 8.30833 1.76703C8.87944 2.33814 9.165 3.02474 9.165 3.82682C9.165 4.62891 8.87944 5.31557 8.30833 5.88682C7.73708 6.45793 7.05041 6.74349 6.24833 6.74349ZM13.4437 3.82682C13.4437 4.62891 13.1582 5.31557 12.5871 5.88682C12.016 6.45793 11.3294 6.74349 10.5273 6.74349C10.4333 6.74349 10.3136 6.73279 10.1683 6.71141C10.0229 6.69002 9.90326 6.66654 9.80937 6.64099C10.138 6.24585 10.3906 5.80752 10.5671 5.32599C10.7435 4.84446 10.8317 4.34446 10.8317 3.82599C10.8317 3.30738 10.7417 2.80925 10.5617 2.33161C10.3817 1.85411 10.1309 1.41453 9.80937 1.01286C9.92895 0.970087 10.0486 0.942309 10.1683 0.929531C10.2879 0.916614 10.4076 0.910156 10.5273 0.910156C11.3294 0.910156 12.016 1.19578 12.5871 1.76703C13.1582 2.33814 13.4437 3.02474 13.4437 3.82682ZM1.24833 11.8397H11.2483V11.237C11.2483 11.063 11.2048 10.9081 11.1177 10.7724C11.0308 10.6368 10.8927 10.5181 10.7035 10.4166C10.0177 10.063 9.31152 9.79509 8.58499 9.61286C7.85847 9.43078 7.07958 9.33974 6.24833 9.33974C5.41722 9.33974 4.6384 9.43078 3.91187 9.61286C3.18534 9.79509 2.47916 10.063 1.79333 10.4166C1.60416 10.5181 1.46604 10.6368 1.37895 10.7724C1.29187 10.9081 1.24833 11.063 1.24833 11.237V11.8397ZM6.24833 5.49349C6.70666 5.49349 7.09902 5.3303 7.42541 5.00391C7.7518 4.67752 7.91499 4.28516 7.91499 3.82682C7.91499 3.36849 7.7518 2.97613 7.42541 2.64974C7.09902 2.32335 6.70666 2.16016 6.24833 2.16016C5.78999 2.16016 5.39763 2.32335 5.07124 2.64974C4.74486 2.97613 4.58166 3.36849 4.58166 3.82682C4.58166 4.28516 4.74486 4.67752 5.07124 5.00391C5.39763 5.3303 5.78999 5.49349 6.24833 5.49349Z" fill="#5E5E65"/>
</svg>
