<svg width="19" height="14" viewBox="0 0 19 14" fill="none" xmlns="http://www.w3.org/2000/svg">
<path d="M14.2746 8.45828V5.95828H11.7746V4.70828H14.2746V2.20828H15.5246V4.70828H18.0246V5.95828H15.5246V8.45828H14.2746ZM6.67041 6.74349C5.86833 6.74349 5.18173 6.45793 4.61062 5.88682C4.03937 5.31557 3.75374 4.62891 3.75374 3.82682C3.75374 3.02474 4.03937 2.33814 4.61062 1.76703C5.18173 1.19578 5.86833 0.910156 6.67041 0.910156C7.47249 0.910156 8.15909 1.19578 8.7302 1.76703C9.30145 2.33814 9.58708 3.02474 9.58708 3.82682C9.58708 4.62891 9.30145 5.31557 8.7302 5.88682C8.15909 6.45793 7.47249 6.74349 6.67041 6.74349ZM0.42041 13.0897V11.237C0.42041 10.829 0.531243 10.4511 0.75291 10.1033C0.974577 9.7555 1.27083 9.48814 1.64166 9.3012C2.46527 8.89745 3.29617 8.5946 4.13437 8.39266C4.97256 8.19071 5.81791 8.08974 6.67041 8.08974C7.52291 8.08974 8.36826 8.19071 9.20645 8.39266C10.0446 8.5946 10.8755 8.89745 11.6992 9.3012C12.07 9.48814 12.3662 9.7555 12.5879 10.1033C12.8096 10.4511 12.9204 10.829 12.9204 11.237V13.0897H0.42041ZM1.67041 11.8397H11.6704V11.237C11.6704 11.0683 11.6215 10.912 11.5237 10.7683C11.426 10.6247 11.2933 10.5074 11.1256 10.4166C10.4076 10.063 9.67548 9.79509 8.92937 9.61286C8.18312 9.43078 7.43013 9.33974 6.67041 9.33974C5.91069 9.33974 5.1577 9.43078 4.41145 9.61286C3.66534 9.79509 2.93326 10.063 2.2152 10.4166C2.04756 10.5074 1.91485 10.6247 1.81708 10.7683C1.7193 10.912 1.67041 11.0683 1.67041 11.237V11.8397ZM6.67041 5.49349C7.12874 5.49349 7.5211 5.3303 7.84749 5.00391C8.17388 4.67752 8.33708 4.28516 8.33708 3.82682C8.33708 3.36849 8.17388 2.97613 7.84749 2.64974C7.5211 2.32335 7.12874 2.16016 6.67041 2.16016C6.21208 2.16016 5.81972 2.32335 5.49333 2.64974C5.16694 2.97613 5.00374 3.36849 5.00374 3.82682C5.00374 4.28516 5.16694 4.67752 5.49333 5.00391C5.81972 5.3303 6.21208 5.49349 6.67041 5.49349Z" fill="#383838"/>
</svg>
