<svg width="18" height="13" viewBox="0 0 18 13" fill="none" xmlns="http://www.w3.org/2000/svg">
<path d="M9.00202 9.98083C9.94632 9.98083 10.7483 9.65035 11.4081 8.98938C12.0678 8.3284 12.3976 7.52576 12.3976 6.58146C12.3976 5.63715 12.0672 4.83514 11.4062 4.17542C10.7452 3.51569 9.94257 3.18583 8.99827 3.18583C8.05396 3.18583 7.25195 3.51632 6.59223 4.17729C5.93251 4.83826 5.60264 5.6409 5.60264 6.58521C5.60264 7.52951 5.93313 8.33153 6.5941 8.99125C7.25507 9.65097 8.05771 9.98083 9.00202 9.98083ZM9.00014 8.83333C8.37514 8.83333 7.84389 8.61458 7.40639 8.17708C6.96889 7.73958 6.75014 7.20833 6.75014 6.58333C6.75014 5.95833 6.96889 5.42708 7.40639 4.98958C7.84389 4.55208 8.37514 4.33333 9.00014 4.33333C9.62514 4.33333 10.1564 4.55208 10.5939 4.98958C11.0314 5.42708 11.2501 5.95833 11.2501 6.58333C11.2501 7.20833 11.0314 7.73958 10.5939 8.17708C10.1564 8.61458 9.62514 8.83333 9.00014 8.83333ZM9.00119 12.4167C7.08493 12.4167 5.33889 11.8881 3.76306 10.8308C2.18723 9.77375 1.02695 8.35792 0.282227 6.58333C1.02695 4.80875 2.18681 3.39292 3.76181 2.33583C5.33695 1.27861 7.08271 0.75 8.9991 0.75C10.9154 0.75 12.6614 1.27861 14.2372 2.33583C15.8131 3.39292 16.9733 4.80875 17.7181 6.58333C16.9733 8.35792 15.8135 9.77375 14.2385 10.8308C12.6633 11.8881 10.9176 12.4167 9.00119 12.4167ZM9.00014 11.1667C10.5696 11.1667 12.0106 10.7535 13.3231 9.92708C14.6356 9.10069 15.639 7.98611 16.3335 6.58333C15.639 5.18056 14.6356 4.06597 13.3231 3.23958C12.0106 2.41319 10.5696 2 9.00014 2C7.4307 2 5.98973 2.41319 4.67723 3.23958C3.36473 4.06597 2.36125 5.18056 1.66681 6.58333C2.36125 7.98611 3.36473 9.10069 4.67723 9.92708C5.98973 10.7535 7.4307 11.1667 9.00014 11.1667Z" fill="#383838"/>
</svg>
