<svg width="16" height="16" viewBox="0 0 16 16" fill="none" xmlns="http://www.w3.org/2000/svg">
<path d="M7.07711 15.9163C6.79295 15.9163 6.54753 15.822 6.34086 15.6334C6.13406 15.445 6.00823 15.2129 5.96336 14.9372L5.75982 13.3778C5.53663 13.3031 5.30774 13.1984 5.07316 13.0638C4.83871 12.9291 4.62906 12.7849 4.4442 12.6311L3.00024 13.2449C2.73843 13.3603 2.47538 13.3715 2.21107 13.2784C1.94663 13.1855 1.74121 13.0168 1.59482 12.7722L0.655656 11.1438C0.509267 10.8993 0.467114 10.6404 0.529198 10.3674C0.591142 10.0945 0.733226 9.86933 0.955448 9.69197L2.20378 8.75447C2.18461 8.63058 2.171 8.50613 2.16295 8.38113C2.15489 8.25613 2.15086 8.13162 2.15086 8.00759C2.15086 7.88912 2.15489 7.7687 2.16295 7.64634C2.171 7.52398 2.18461 7.39016 2.20378 7.24488L0.955448 6.30738C0.733226 6.13002 0.592462 5.90349 0.533156 5.6278C0.47385 5.35224 0.517392 5.09211 0.663781 4.84738L1.59482 3.24322C1.74121 3.00391 1.94663 2.83648 2.21107 2.74092C2.47538 2.64523 2.73843 2.65509 3.00024 2.77051L4.43607 3.37634C4.63705 3.21717 4.85156 3.07162 5.07961 2.93967C5.30767 2.80773 5.53177 2.70169 5.75191 2.62155L5.96336 1.06217C6.00823 0.78648 6.13406 0.554397 6.34086 0.365925C6.54753 0.177314 6.79295 0.0830078 7.07711 0.0830078H8.92336C9.20753 0.0830078 9.45295 0.177314 9.65961 0.365925C9.86642 0.554397 9.99225 0.78648 10.0371 1.06217L10.2407 2.62947C10.4907 2.7203 10.7168 2.82634 10.9192 2.94759C11.1217 3.06884 11.3261 3.21176 11.5323 3.37634L13.0084 2.77051C13.27 2.65509 13.5331 2.64523 13.7975 2.74092C14.062 2.83648 14.2673 3.00391 14.4136 3.24322L15.3448 4.85551C15.4912 5.10009 15.5334 5.35891 15.4713 5.63197C15.4093 5.90488 15.2673 6.13002 15.045 6.30738L13.7646 7.26884C13.7945 7.40342 13.8108 7.52926 13.8136 7.64634C13.8162 7.76329 13.8175 7.88106 13.8175 7.99967C13.8175 8.11287 13.8148 8.22801 13.8094 8.34509C13.8041 8.46204 13.785 8.59586 13.7519 8.74655L15.0082 9.69197C15.2304 9.86933 15.3738 10.0945 15.4386 10.3674C15.5032 10.6404 15.4623 10.8993 15.3159 11.1438L14.3719 12.764C14.2257 13.0088 14.019 13.1776 13.7519 13.2705C13.4848 13.3634 13.2204 13.3522 12.9586 13.2368L11.5323 12.623C11.3261 12.7876 11.1156 12.9331 10.9009 13.0597C10.6861 13.1863 10.4661 13.2897 10.2407 13.3699L10.0371 14.9372C9.99225 15.2129 9.86642 15.445 9.65961 15.6334C9.45295 15.822 9.20753 15.9163 8.92336 15.9163H7.07711ZM7.16691 14.6663H8.80482L9.10441 12.434C9.52968 12.3229 9.91829 12.1651 10.2702 11.9605C10.6223 11.7558 10.9618 11.4927 11.2888 11.1711L13.3592 12.0413L14.1798 10.6247L12.3721 9.26259C12.4416 9.04676 12.4888 8.83516 12.5138 8.6278C12.5389 8.42058 12.5515 8.2112 12.5515 7.99967C12.5515 7.78273 12.5389 7.57336 12.5138 7.37155C12.4888 7.1696 12.4416 6.96336 12.3721 6.7528L14.1957 5.37467L13.3752 3.95801L11.2807 4.84092C11.0018 4.54287 10.6677 4.27954 10.2784 4.05093C9.88892 3.82231 9.49496 3.66044 9.09649 3.5653L8.83357 1.33301H7.17982L6.90399 3.55738C6.47885 3.6578 6.08628 3.81162 5.72628 4.01884C5.36614 4.2262 5.0226 4.49329 4.69566 4.82009L2.62524 3.95801L1.80482 5.37467L3.60441 6.71592C3.53496 6.9137 3.48635 7.1194 3.45857 7.33301C3.43079 7.54662 3.41691 7.77148 3.41691 8.00759C3.41691 8.22454 3.43079 8.43717 3.45857 8.64551C3.48635 8.85384 3.53232 9.05954 3.59649 9.26259L1.80482 10.6247L2.62524 12.0413L4.68774 11.1663C5.00399 11.4911 5.34211 11.7571 5.70211 11.9645C6.06225 12.1717 6.46024 12.3309 6.89607 12.442L7.16691 14.6663ZM8.00982 10.4997C8.70316 10.4997 9.29315 10.2563 9.77982 9.76967C10.2665 9.28301 10.5098 8.69301 10.5098 7.99967C10.5098 7.30634 10.2665 6.71634 9.77982 6.22967C9.29315 5.74301 8.70316 5.49967 8.00982 5.49967C7.30788 5.49967 6.71572 5.74301 6.23336 6.22967C5.751 6.71634 5.50982 7.30634 5.50982 7.99967C5.50982 8.69301 5.751 9.28301 6.23336 9.76967C6.71572 10.2563 7.30788 10.4997 8.00982 10.4997Z" fill="#2B2C36"/>
</svg>
