<svg width="13" height="15" viewBox="0 0 13 15" fill="none" xmlns="http://www.w3.org/2000/svg">
<path d="M9.99984 12.9997L12.6665 10.333L11.7332 9.39968L10.6665 10.4663V7.68301H9.33317V10.4663L8.2665 9.39968L7.33317 10.333L9.99984 12.9997ZM7.33317 14.9997V13.6663H12.6665V14.9997H7.33317ZM1.99984 12.333C1.63317 12.333 1.31928 12.2025 1.05817 11.9413C0.797059 11.6802 0.666504 11.3663 0.666504 10.9997V1.66634C0.666504 1.29967 0.797059 0.985786 1.05817 0.724675C1.31928 0.463563 1.63317 0.333008 1.99984 0.333008H6.6665L10.6665 4.33301V6.34968H9.33317V4.99967H5.99984V1.66634H1.99984V10.9997H5.99984V12.333H1.99984Z" fill="#5E5E65"/>
</svg>
