<svg width="17" height="16" viewBox="0 0 17 16" fill="none" xmlns="http://www.w3.org/2000/svg">
<mask id="mask0_166_9416" style="mask-type:alpha" maskUnits="userSpaceOnUse" x="0" y="0" width="17" height="16">
<rect x="0.5" width="16" height="16" fill="#D9D9D9"/>
</mask>
<g mask="url(#mask0_166_9416)">
<path d="M3.83301 5.87184H13.1663V4.20518C13.1663 4.15384 13.145 4.10684 13.1022 4.06418C13.0595 4.0214 13.0125 4.00001 12.9612 4.00001H4.03817C3.98684 4.00001 3.93984 4.0214 3.89717 4.06418C3.8544 4.10684 3.83301 4.15384 3.83301 4.20518V5.87184ZM4.03817 14.3333C3.7014 14.3333 3.41634 14.2167 3.18301 13.9833C2.94967 13.75 2.83301 13.465 2.83301 13.1282V4.20518C2.83301 3.8684 2.94967 3.58334 3.18301 3.35001C3.41634 3.11668 3.7014 3.00001 4.03817 3.00001H4.96117V2.10251C4.96117 1.9564 5.01012 1.8344 5.10801 1.73651C5.2059 1.63873 5.3279 1.58984 5.47401 1.58984C5.62023 1.58984 5.74223 1.63873 5.84001 1.73651C5.9379 1.8344 5.98684 1.9564 5.98684 2.10251V3.00001H11.0382V2.08984C11.0382 1.94795 11.086 1.82912 11.1817 1.73334C11.2775 1.63768 11.3963 1.58984 11.5382 1.58984C11.6801 1.58984 11.7988 1.63768 11.8945 1.73334C11.9903 1.82912 12.0382 1.94795 12.0382 2.08984V3.00001H12.9612C13.298 3.00001 13.583 3.11668 13.8163 3.35001C14.0497 3.58334 14.1663 3.8684 14.1663 4.20518V7.34751C14.1663 7.4894 14.1185 7.60818 14.0227 7.70384C13.927 7.79962 13.8082 7.84751 13.6663 7.84751C13.5245 7.84751 13.4057 7.79962 13.31 7.70384C13.2142 7.60818 13.1663 7.4894 13.1663 7.34751V6.87184H3.83301V13.1282C3.83301 13.1795 3.8544 13.2265 3.89717 13.2692C3.93984 13.312 3.98684 13.3333 4.03817 13.3333H8.11634C8.25823 13.3333 8.37706 13.3812 8.47284 13.477C8.56851 13.5727 8.61634 13.6915 8.61634 13.8333C8.61634 13.9752 8.56851 14.094 8.47284 14.1897C8.37706 14.2855 8.25823 14.3333 8.11634 14.3333H4.03817ZM12.6278 15C11.7954 15 11.0873 14.7081 10.5035 14.1243C9.91973 13.5406 9.62784 12.8325 9.62784 12C9.62784 11.1676 9.91973 10.4595 10.5035 9.87568C11.0873 9.2919 11.7954 9.00001 12.6278 9.00001C13.4604 9.00001 14.1685 9.2919 14.7522 9.87568C15.336 10.4595 15.6278 11.1676 15.6278 12C15.6278 12.8325 15.336 13.5406 14.7522 14.1243C14.1685 14.7081 13.4604 15 12.6278 15ZM12.9228 11.8795V10.3333C12.9228 10.253 12.8937 10.1838 12.8355 10.1257C12.7774 10.0676 12.7082 10.0385 12.6278 10.0385C12.5475 10.0385 12.4783 10.0676 12.4202 10.1257C12.3621 10.1838 12.333 10.253 12.333 10.3333V11.8692C12.333 11.9495 12.3476 12.026 12.3767 12.0987C12.4057 12.1713 12.4514 12.2389 12.5138 12.3013L13.5305 13.318C13.5886 13.3761 13.6568 13.4062 13.735 13.4083C13.8131 13.4105 13.8834 13.3803 13.9458 13.318C14.0083 13.2556 14.0395 13.1863 14.0395 13.1103C14.0395 13.0342 14.0083 12.965 13.9458 12.9025L12.9228 11.8795Z" fill="#007AFF"/>
</g>
</svg>
