<svg width="14" height="14" viewBox="0 0 14 14" fill="none" xmlns="http://www.w3.org/2000/svg">
<path d="M1.83301 4.87184H11.1663V3.20518C11.1663 3.15384 11.145 3.10684 11.1022 3.06418C11.0595 3.0214 11.0125 3.00001 10.9612 3.00001H2.03817C1.98684 3.00001 1.93984 3.0214 1.89717 3.06418C1.8544 3.10684 1.83301 3.15384 1.83301 3.20518V4.87184ZM2.03817 13.3333C1.7014 13.3333 1.41634 13.2167 1.18301 12.9833C0.949674 12.75 0.833008 12.465 0.833008 12.1282V3.20518C0.833008 2.8684 0.949674 2.58334 1.18301 2.35001C1.41634 2.11668 1.7014 2.00001 2.03817 2.00001H2.96117V1.10251C2.96117 0.956399 3.01012 0.834399 3.10801 0.73651C3.2059 0.638732 3.3279 0.589844 3.47401 0.589844C3.62023 0.589844 3.74223 0.638732 3.84001 0.73651C3.9379 0.834399 3.98684 0.956399 3.98684 1.10251V2.00001H9.03818V1.08984C9.03818 0.947955 9.08601 0.829121 9.18167 0.733344C9.27745 0.637677 9.39629 0.589844 9.53818 0.589844C9.68006 0.589844 9.79884 0.637677 9.89451 0.733344C9.99029 0.829121 10.0382 0.947955 10.0382 1.08984V2.00001H10.9612C11.298 2.00001 11.583 2.11668 11.8163 2.35001C12.0497 2.58334 12.1663 2.8684 12.1663 3.20518V6.34751C12.1663 6.4894 12.1185 6.60818 12.0227 6.70384C11.927 6.79962 11.8082 6.84751 11.6663 6.84751C11.5245 6.84751 11.4057 6.79962 11.31 6.70384C11.2142 6.60818 11.1663 6.4894 11.1663 6.34751V5.87184H1.83301V12.1282C1.83301 12.1795 1.8544 12.2265 1.89717 12.2692C1.93984 12.312 1.98684 12.3333 2.03817 12.3333H6.11634C6.25823 12.3333 6.37706 12.3812 6.47284 12.477C6.56851 12.5727 6.61634 12.6915 6.61634 12.8333C6.61634 12.9752 6.56851 13.094 6.47284 13.1897C6.37706 13.2855 6.25823 13.3333 6.11634 13.3333H2.03817ZM10.6278 14C9.7954 14 9.08729 13.7081 8.50351 13.1243C7.91973 12.5406 7.62784 11.8325 7.62784 11C7.62784 10.1676 7.91973 9.45946 8.50351 8.87568C9.08729 8.2919 9.7954 8.00001 10.6278 8.00001C11.4604 8.00001 12.1685 8.2919 12.7522 8.87568C13.336 9.45946 13.6278 10.1676 13.6278 11C13.6278 11.8325 13.336 12.5406 12.7522 13.1243C12.1685 13.7081 11.4604 14 10.6278 14ZM10.9228 10.8795V9.33334C10.9228 9.25301 10.8937 9.18379 10.8355 9.12568C10.7774 9.06757 10.7082 9.03851 10.6278 9.03851C10.5475 9.03851 10.4783 9.06757 10.4202 9.12568C10.3621 9.18379 10.333 9.25301 10.333 9.33334V10.8692C10.333 10.9495 10.3476 11.026 10.3767 11.0987C10.4057 11.1713 10.4514 11.2389 10.5138 11.3013L11.5305 12.318C11.5886 12.3761 11.6568 12.4062 11.735 12.4083C11.8131 12.4105 11.8834 12.3803 11.9458 12.318C12.0083 12.2556 12.0395 12.1863 12.0395 12.1103C12.0395 12.0342 12.0083 11.965 11.9458 11.9025L10.9228 10.8795Z" fill="#5E5E65"/>
</svg>
